<svg width="80" height="80" viewBox="0 0 60 60" xmlns="http://www.w3.org/2000/svg"><path fill="#fff" d="M18.76 26.57c.41-3.66 2.43-7.53 6.33-8.36 3.76-1.22 7.46 1.19 9.34 4.34 1.61-.47 3.48-1.03 4.94.15 1.89 1.13 1.58 3.46 1.48 5.32 1.58 1.11 3.44 2.17 3.93 4.21 1.28 3.65-1.81 7.89-5.67 7.81-5.72.06-11.45.06-17.18 0-4.41.05-7.99-4.74-6.6-8.96.42-1.97 2.09-3.17 3.43-4.51z"/><path fill="#0faff1" d="M28.14 0h4.38C46.93 1.17 59.24 13.62 60 28.1v4.42C58.84 46.9 46.45 59.18 32.01 60h-4.23C13.3 59.03.87 46.58 0 32.07v-4.29C.97 13.23 13.56.74 28.14 0m-9.38 26.57c-1.34 1.34-3.01 2.54-3.43 4.51-1.39 4.22 2.19 9.01 6.6 8.96 5.73.06 11.46.06 17.18 0 3.86.08 6.95-4.16 5.67-7.81-.49-2.04-2.35-3.1-3.93-4.21.1-1.86.41-4.19-1.48-5.32-1.46-1.18-3.33-.62-4.94-.15-1.88-3.15-5.58-5.56-9.34-4.34-3.9.83-5.92 4.7-6.33 8.36z"/></svg>