<svg width="940pt" height="949pt" viewBox="0 0 940 949" xmlns="http://www.w3.org/2000/svg"><path fill="#fff" d="M453.27 244.28c10.82-.08 21.64-.08 32.45 0-.16 6.17-.02 12.34.14 18.51 6.25-.14 12.5-.03 18.74.26 0 4.05.05 8.1.16 12.16 4.03.09 8.06.15 12.1.17.11 6.6.18 13.21.19 19.82 4.18.11 8.36.18 12.54.2 0 4.16.06 8.33.19 12.49 6.13-.04 12.26.06 18.39.1a621.7 621.7 0 0 1 0 31.14c-14.61.39-29.22 0-43.83.17.09 31.17.11 62.34-.01 93.51 29.19.3 58.39.13 87.58.08.37-14.54-.18-29.08.23-43.62 10.32.03 20.64.01 30.96 0 .14 4.15.23 8.29.29 12.44 6.18-.14 12.37-.03 18.55.09-.01 6.14.11 12.28.12 18.42 4.17.11 8.34.18 12.52.19.01 4.17.07 8.34.2 12.51 6.49-.01 12.98.07 19.47.11.15 6.19.26 12.39.08 18.58 4.19.04 8.39.12 12.6.23-.08 10.63.5 21.31-.17 31.92-3.84 1.34-8.01.75-12 .96-.1 3.99-.17 7.99-.17 11.99-6.76-.12-13.52-.1-20.26.27.16 6.08.06 12.17-.07 18.26-4.02.1-8.04.15-12.05.15-.14 4.18-.26 8.37-.36 12.55-6.2-.02-12.39.13-18.59.19.18 6.19.05 12.39-.15 18.59-10.32-.03-20.65-.03-30.97 0-.4-16.63.12-33.26-.21-49.88-24.31-.41-48.62 0-72.93-.2-4.89-.07-9.78.08-14.65.35.09 31.22.07 62.44.01 93.66 14.6.06 29.21-.27 43.81.14.24 10.31.33 20.64-.07 30.95-6.12-.13-12.24-.02-18.35.11-.16 6.24-.26 12.49-.08 18.74-4.19.01-8.37.08-12.55.2-.09 4.04-.17 8.09-.24 12.13-4.04.09-8.07.17-12.1.24-.13 4.17-.2 8.34-.19 12.52-6.26-.16-12.52-.06-18.77.1-.15 6.63-.21 13.26-.12 19.89-10.8-.05-21.6-.05-32.4 0 .09-6.62.03-13.25-.12-19.86-4.07-.12-8.14-.19-12.21-.21-.19-4.15-.3-8.3-.35-12.44-6.17-.03-12.34-.16-18.5-.19l-.24-12.18c-4.18-.12-8.37-.18-12.55-.2.17-6.25.07-12.5-.08-18.74-6.12-.13-12.24-.24-18.35-.11-.41-10.31-.3-20.64-.07-30.95 16.61-.41 33.23-.09 49.84-.13.04-31.25-.04-62.5.05-93.75-23.24-.54-46.48-.08-69.72-.22-7.98-.01-15.96-.14-23.93.14-.34 16.63.19 33.26-.21 49.88-10.32-.02-20.65-.02-30.97.01-.21-6.2-.34-12.4-.15-18.59-6.21-.06-12.41-.2-18.61-.19-.08-4.06-.17-8.12-.25-12.17-4.53-.14-9.06-.2-13.58-.16.11-6.27 0-12.53-.12-18.79-6.25-.13-12.51-.23-18.76-.11-.01-3.98-.08-7.95-.18-11.92-4.08-.21-8.15-.38-12.23-.6-.04-10.78-.08-21.57.06-32.35 4.2-.11 8.4-.19 12.6-.23-.18-6.19-.07-12.39.08-18.58 6.13-.02 12.27-.14 18.4-.1.11-4.19.18-8.37.23-12.55 4.52.04 9.04-.03 13.56-.15.01-6.15.13-12.28.12-18.42 6.18-.13 12.37-.25 18.56-.1.05-4.15.14-8.29.29-12.43 10.31.01 20.63.02 30.95-.01.4 14.54-.14 29.08.23 43.63 31.21.06 62.42.18 93.63-.07-.07-31.18-.04-62.36-.02-93.54-16.62-.15-33.25.22-49.87-.16-.27-10.37-.27-20.76 0-31.14 6.13-.04 12.26-.14 18.39-.1.12-4.16.19-8.32.19-12.49 4.18-.02 8.36-.09 12.54-.2.02-6.5.1-12.99.1-19.48 6.19-.16 12.38-.27 18.57-.06.04-4.25.11-8.5.23-12.74 4.09-.1 8.19-.17 12.29-.21.16-6.14.29-12.29.13-18.43z"/><path fill="#95a5a6" d="M378.34 11.37c60.77.05 121.55.05 182.32 0-.06 6.26.08 12.52.18 18.78 16.56.45 33.13.02 49.7.17.13 4.13.28 8.26.44 12.39 14.41.13 28.83-.3 43.25.16.13 6.25.26 12.5.15 18.75 10.81.11 21.62-.26 32.43.18.12 4.04.25 8.09.38 12.13 10.32.3 20.64-.08 30.97.18.1 6.19.24 12.37.17 18.56 6.16-.06 12.33.09 18.49.2.14 4.6.27 9.19.42 13.79 10.44.08 20.9-.4 31.33.32-.13 6.04-.03 12.08.12 18.12 3.94.13 7.9.24 11.85.34.13 4.08.27 8.17.42 12.25 6.09-.05 12.18.07 18.27.19.13 6.22.26 12.43.14 18.64 4.15.1 8.3.21 12.45.33.11 4.03.24 8.06.36 12.1 6.16.04 12.33.21 18.5.25-.1 6.14.06 12.27.2 18.41 4.09.11 8.18.22 12.27.35.38 10.33.06 20.67.16 31.01 6.72.16 13.44.38 20.17.31.05 3.98.13 7.96.26 11.93 3.97.12 7.94.22 11.92.29.15 10.41-.24 20.83.23 31.23 6.25-.07 12.5.11 18.75.32.06 10.7-.27 21.4.14 32.09 4.01.12 8.03.22 12.06.31.4 10.27-.03 20.54.25 30.81 6.19.16 12.37.29 18.57.14.21 20.89-.27 41.78.19 62.66 4.07.13 8.16.24 12.25.35.53 27.86.06 55.73.22 83.59-.12 34.95.23 69.9-.17 104.85l-12.3.36c-.45 14.48 0 28.97-.17 43.46-6.2-.06-12.4.09-18.59.21-.37 14.55.27 29.11-.25 43.67-4.03.08-8.05.18-12.06.31-.41 10.68-.08 21.37-.14 32.06-6.25.21-12.5.39-18.75.33-.46 10.41-.08 20.83-.23 31.24-3.99.07-7.99.16-11.97.3-.15 6.04-.25 12.1-.12 18.15-6.75.23-13.5.44-20.25.34-.11 10.28.2 20.56-.17 30.84-4.04.13-8.08.24-12.11.34-.2 4.08-.37 8.16-.52 12.25-6.14-.02-12.29.14-18.42.27-.01 6.19-.19 12.38-.25 18.58-4.02.09-8.02.19-12.02.31-.13 4.04-.23 8.08-.3 12.12-6.22.21-12.43.38-18.64.31-.15 6.12-.31 12.25-.21 18.38-4.09.18-8.18.35-12.26.53-.1 3.99-.22 7.98-.34 11.98-10.31.4-20.62.09-30.92.15-.06 6.62-.27 13.24-.25 19.86-6.15.13-12.31.27-18.46.16l-.36 12.52c-10.34.24-20.67-.13-30.99.19 0 6.2-.19 12.4-.25 18.61-10.67.1-21.34-.25-32 .16-.14 4.05-.25 8.1-.33 12.16-14.53.72-29.08.09-43.62.3-.16 6.17-.32 12.35-.22 18.53-16.61.43-33.23-.16-49.84.23-.06 3.98-.15 7.96-.26 11.94H378.43c-.13-3.98-.22-7.96-.27-11.93-16.61-.39-33.23.19-49.84-.24.1-6.18-.06-12.36-.22-18.54-14.89-.18-29.79.36-44.68-.22-.1-4.08-.21-8.16-.33-12.24-10.31-.38-20.62-.06-30.93-.15-.08-6.21-.26-12.41-.26-18.61-10.33-.32-20.66.05-30.98-.18-.14-4.18-.26-8.36-.37-12.53-6.16.11-12.31-.03-18.47-.16.03-6.62-.19-13.24-.24-19.86-10.31-.05-20.62.25-30.92-.15-.13-4-.24-7.99-.34-11.99-4.09-.17-8.17-.34-12.26-.52.1-6.13-.06-12.26-.21-18.38-6.21.07-12.43-.1-18.64-.31-.08-4.05-.17-8.09-.3-12.12-4-.12-8.01-.22-12.02-.31-.06-6.2-.25-12.39-.25-18.58-6.14-.13-12.28-.29-18.42-.27-.16-4.08-.33-8.16-.52-12.23-4.53-.11-9.07-.26-13.6-.44-.06-10.23.29-20.45-.18-30.66-4.03-.14-8.06-.28-12.09-.43-.03-6.07-.17-12.14-.19-18.21-6.18-.15-12.37-.29-18.56-.14-.16-10.42.23-20.85-.23-31.26-4.08-.12-8.17-.24-12.26-.38-.42-10.85-.02-21.71-.19-32.57-6.19.13-12.38 0-18.57-.15-.38-14.43.15-28.86-.17-43.29-4.18-.14-8.37-.27-12.56-.39-.04-10.26.25-20.52-.14-30.78-6.12-.13-12.23-.24-18.35-.17-.64-13.87-.09-27.77-.27-41.65 0-29.64.01-59.28 0-88.92.21-23.58-.41-47.17.29-70.74 6.11.06 12.22-.05 18.33-.17.45-20.71.06-41.42.14-62.13 4.16-.19 8.33-.34 12.49-.48.36-10.25-.06-20.52.24-30.77 6.19-.15 12.38-.28 18.57-.15.18-10.87-.22-21.74.19-32.6 4.09-.14 8.18-.25 12.27-.36.45-10.41.06-20.83.22-31.25 6.15.14 12.3.01 18.45-.13.15-3.99.29-7.97.43-11.95 4-.1 8-.22 12-.35.41-10.3.09-20.6.14-30.89 4.59-.2 9.17-.35 13.76-.48.14-6.13.3-12.26.2-18.39 6.17-.04 12.33-.2 18.5-.25l.36-12.09c4.15-.13 8.3-.24 12.45-.34-.12-6.21.01-12.43.14-18.64 6.09-.12 12.17-.24 18.26-.19.16-4.08.3-8.16.43-12.25 3.95-.1 7.9-.21 11.85-.34.14-6.04.25-12.08.12-18.12 10.43-.72 20.88-.24 31.33-.32l.42-13.79c6.16-.11 12.32-.26 18.49-.2-.07-6.18.07-12.37.18-18.56 10.32-.25 20.64.13 30.96-.19.12-4.04.25-8.08.38-12.13 10.28-.41 20.56-.08 30.84-.15.23-6.24.4-12.47.29-18.71 14.9-.59 29.8-.05 44.7-.22.16-4.13.3-8.26.44-12.4 16.57-.14 33.13.29 49.7-.16.1-6.26.24-12.52.18-18.78m74.93 232.91c.16 6.14.03 12.29-.13 18.43-4.1.04-8.2.11-12.29.21-.12 4.24-.19 8.49-.23 12.74-6.19-.21-12.38-.1-18.57.06 0 6.49-.08 12.98-.1 19.48-4.18.11-8.36.18-12.54.2 0 4.17-.07 8.33-.19 12.49-6.13-.04-12.26.06-18.39.1-.27 10.38-.27 20.77 0 31.14 16.62.38 33.25.01 49.87.16-.02 31.18-.05 62.36.02 93.54-31.21.25-62.42.13-93.63.07-.37-14.55.17-29.09-.23-43.63-10.32.03-20.64.02-30.95.01-.15 4.14-.24 8.28-.29 12.43-6.19-.15-12.38-.03-18.56.1.01 6.14-.11 12.27-.12 18.42-4.52.12-9.04.19-13.56.15-.05 4.18-.12 8.36-.23 12.55-6.13-.04-12.27.08-18.4.1-.15 6.19-.26 12.39-.08 18.58-4.2.04-8.4.12-12.6.23-.14 10.78-.1 21.57-.06 32.35 4.08.22 8.15.39 12.23.6.1 3.97.17 7.94.18 11.92 6.25-.12 12.51-.02 18.76.11.12 6.26.23 12.52.12 18.79 4.52-.04 9.05.02 13.58.16.08 4.05.17 8.11.25 12.17 6.2-.01 12.4.13 18.61.19-.19 6.19-.06 12.39.15 18.59 10.32-.03 20.65-.03 30.97-.01.4-16.62-.13-33.25.21-49.88 7.97-.28 15.95-.15 23.93-.14 23.24.14 46.48-.32 69.72.22-.09 31.25-.01 62.5-.05 93.75-16.61.04-33.23-.28-49.84.13-.23 10.31-.34 20.64.07 30.95 6.11-.13 12.23-.02 18.35.11.15 6.24.25 12.49.08 18.74 4.18.02 8.37.08 12.55.2l.24 12.18c6.16.03 12.33.16 18.5.19.05 4.14.16 8.29.35 12.44 4.07.02 8.14.09 12.21.21.15 6.61.21 13.24.12 19.86 10.8-.05 21.6-.05 32.4 0-.09-6.63-.03-13.26.12-19.89 6.25-.16 12.51-.26 18.77-.1-.01-4.18.06-8.35.19-12.52 4.03-.07 8.06-.15 12.1-.24.07-4.04.15-8.09.24-12.13 4.18-.12 8.36-.19 12.55-.2-.18-6.25-.08-12.5.08-18.74 6.11-.13 12.23-.24 18.35-.11.4-10.31.31-20.64.07-30.95-14.6-.41-29.21-.08-43.81-.14.06-31.22.08-62.44-.01-93.66 4.87-.27 9.76-.42 14.65-.35 24.31.2 48.62-.21 72.93.2.33 16.62-.19 33.25.21 49.88 10.32-.03 20.65-.03 30.97 0 .2-6.2.33-12.4.15-18.59 6.2-.06 12.39-.21 18.59-.19.1-4.18.22-8.37.36-12.55 4.01 0 8.03-.05 12.05-.15.13-6.09.23-12.18.07-18.26 6.74-.37 13.5-.39 20.26-.27 0-4 .07-8 .17-11.99 3.99-.21 8.16.38 12-.96.67-10.61.09-21.29.17-31.92-4.21-.11-8.41-.19-12.6-.23.18-6.19.07-12.39-.08-18.58-6.49-.04-12.98-.12-19.47-.11-.13-4.17-.19-8.34-.2-12.51-4.18-.01-8.35-.08-12.52-.19-.01-6.14-.13-12.28-.12-18.42-6.18-.12-12.37-.23-18.55-.09-.06-4.15-.15-8.29-.29-12.44-10.32.01-20.64.03-30.96 0-.41 14.54.14 29.08-.23 43.62-29.19.05-58.39.22-87.58-.08.12-31.17.1-62.34.01-93.51 14.61-.17 29.22.22 43.83-.17a621.7 621.7 0 0 0 0-31.14c-6.13-.04-12.26-.14-18.39-.1-.13-4.16-.19-8.33-.19-12.49-4.18-.02-8.36-.09-12.54-.2-.01-6.61-.08-13.22-.19-19.82-4.04-.02-8.07-.08-12.1-.17-.11-4.06-.16-8.11-.16-12.16-6.24-.29-12.49-.4-18.74-.26-.16-6.17-.3-12.34-.14-18.51-10.81-.08-21.63-.08-32.45 0z"/></svg>