<svg width="80" height="80" viewBox="0 0 60 60" xmlns="http://www.w3.org/2000/svg"><g fill="#fff"><path d="M16.64 23.42c3.31-5.98 12.05-6.94 17.55-3.56 2.62 1.56 4.69 4.81 3.61 7.9-1.51 4.39-6.54 6.42-10.89 6.21-3.27-.25-6.01 1.93-9.2 2.25.78-1.25 1.62-2.46 2.46-3.67-2.7-2.1-5.43-5.59-3.53-9.13z"/><path d="M39.89 23.39c1.9 1.77 4.18 3.72 4.22 6.55.05 2.84-2.21 4.83-4.14 6.58.82 1.25 1.62 2.51 2.38 3.79-2.36-.55-4.59-1.54-6.91-2.21-3.36 0-6.7-.39-9.79-1.82 4.51-.46 9.6-1.29 12.49-5.19 1.85-2.12 1.81-5.05 1.75-7.7z"/></g><path fill="#f1540f" d="M28.2 0h4.18C46.87 1.08 59.29 13.62 60 28.18v4.18C58.94 46.84 46.43 59.25 31.89 60h-4.01C13.33 59.09.81 46.56 0 31.99v-4.15C.93 13.25 13.58.71 28.2 0M16.64 23.42c-1.9 3.54.83 7.03 3.53 9.13-.84 1.21-1.68 2.42-2.46 3.67 3.19-.32 5.93-2.5 9.2-2.25 4.35.21 9.38-1.82 10.89-6.21 1.08-3.09-.99-6.34-3.61-7.9-5.5-3.38-14.24-2.42-17.55 3.56m23.25-.03c.06 2.65.1 5.58-1.75 7.7-2.89 3.9-7.98 4.73-12.49 5.19 3.09 1.43 6.43 1.82 9.79 1.82 2.32.67 4.55 1.66 6.91 2.21-.76-1.28-1.56-2.54-2.38-3.79 1.93-1.75 4.19-3.74 4.14-6.58-.04-2.83-2.32-4.78-4.22-6.55z"/></svg>