<svg width="80" height="80" viewBox="0 0 60 60" xmlns="http://www.w3.org/2000/svg"><path fill="#fff" d="M26.37 15.95c2.19 0 4.39.02 6.59.03-.86 2.72-1.86 5.39-2.87 8.06 2.39-.52 4.77-1.12 7.18-1.52-1.89 5.18-4.57 10.02-6.74 15.09-.85 1.77-1.42 3.92-3.39 4.79.74-4.63 2-9.15 3.11-13.7-2.41.57-4.82 1.19-7.28 1.52 1.05-4.77 2.23-9.52 3.4-14.27z"/><path fill="#f1c40f" d="M28.25 0h4.05C46.85 1.03 59.31 13.63 60 28.22v4.07C58.99 46.85 46.37 59.33 31.76 60h-3.89C13.25 59.09.66 46.4 0 31.74V27.9C.9 13.27 13.59.68 28.25 0m-1.88 15.95c-1.17 4.75-2.35 9.5-3.4 14.27 2.46-.33 4.87-.95 7.28-1.52-1.11 4.55-2.37 9.07-3.11 13.7 1.97-.87 2.54-3.02 3.39-4.79 2.17-5.07 4.85-9.91 6.74-15.09-2.41.4-4.79 1-7.18 1.52 1.01-2.67 2.01-5.34 2.87-8.06-2.2-.01-4.4-.03-6.59-.03z"/></svg>