<?xml version="1.0" encoding="UTF-8" ?>
<!DOCTYPE svg PUBLIC "-//W3C//DTD SVG 1.1//EN" "http://www.w3.org/Graphics/SVG/1.1/DTD/svg11.dtd">
<svg width="73pt" height="49pt" viewBox="0 0 73 49" version="1.1" xmlns="http://www.w3.org/2000/svg">
<g id="#ffffffff">
</g>
<g id="#adb5bdff">
<path fill="#adb5bd" opacity="1.00" d=" M 8.53 9.51 C 10.65 7.39 13.27 4.13 16.64 5.23 C 19.60 6.85 21.74 9.56 24.14 11.86 C 28.52 16.16 32.79 20.58 37.31 24.74 C 44.44 19.12 50.11 11.87 57.04 6.03 C 59.65 3.61 63.07 5.88 65.02 7.97 C 66.72 9.85 69.19 11.98 68.80 14.78 C 67.86 17.28 65.75 19.07 63.94 20.94 C 58.03 26.69 52.16 32.50 46.29 38.29 C 43.88 40.59 41.75 43.34 38.72 44.87 C 36.10 45.86 33.98 43.34 32.21 41.80 C 23.98 33.36 15.44 25.20 7.20 16.78 C 4.83 14.55 6.60 11.32 8.53 9.51 Z" />
</g>
</svg>
