<?xml version="1.0" encoding="UTF-8" ?>
<!DOCTYPE svg PUBLIC "-//W3C//DTD SVG 1.1//EN" "http://www.w3.org/Graphics/SVG/1.1/DTD/svg11.dtd">
<svg width="60pt" height="60pt" viewBox="0 0 60 60" version="1.1" xmlns="http://www.w3.org/2000/svg">
<g id="#ffffffff">
<path fill="#ffffff" opacity="1.00" d=" M 26.37 15.95 C 28.56 15.95 30.76 15.97 32.96 15.98 C 32.10 18.70 31.10 21.37 30.09 24.04 C 32.48 23.52 34.86 22.92 37.27 22.52 C 35.38 27.70 32.70 32.54 30.53 37.61 C 29.68 39.38 29.11 41.53 27.14 42.40 C 27.88 37.77 29.14 33.25 30.25 28.70 C 27.84 29.27 25.43 29.89 22.97 30.22 C 24.02 25.45 25.20 20.70 26.37 15.95 Z" />
</g>
<g id="#f1c40fff">
<path fill="#f1c40f" opacity="1.00" d=" M 28.25 0.00 L 32.30 0.00 C 46.85 1.03 59.31 13.63 60.00 28.22 L 60.00 32.29 C 58.99 46.85 46.37 59.33 31.76 60.00 L 27.87 60.00 C 13.25 59.09 0.66 46.40 0.00 31.74 L 0.00 27.90 C 0.90 13.27 13.59 0.68 28.25 0.00 M 26.37 15.95 C 25.20 20.70 24.02 25.45 22.97 30.22 C 25.43 29.89 27.84 29.27 30.25 28.70 C 29.14 33.25 27.88 37.77 27.14 42.40 C 29.11 41.53 29.68 39.38 30.53 37.61 C 32.70 32.54 35.38 27.70 37.27 22.52 C 34.86 22.92 32.48 23.52 30.09 24.04 C 31.10 21.37 32.10 18.70 32.96 15.98 C 30.76 15.97 28.56 15.95 26.37 15.95 Z" />
</g>
</svg>
