<?xml version="1.0" encoding="UTF-8" ?>
<!DOCTYPE svg PUBLIC "-//W3C//DTD SVG 1.1//EN" "http://www.w3.org/Graphics/SVG/1.1/DTD/svg11.dtd">
<svg width="940pt" height="949pt" viewBox="0 0 940 949" version="1.1" xmlns="http://www.w3.org/2000/svg">
<g id="#ffffffff">
<path fill="#ffffff" opacity="1.00" d=" M 453.27 244.28 C 464.09 244.20 474.91 244.20 485.72 244.28 C 485.56 250.45 485.70 256.62 485.86 262.79 C 492.11 262.65 498.36 262.76 504.60 263.05 C 504.60 267.10 504.65 271.15 504.76 275.21 C 508.79 275.30 512.82 275.36 516.86 275.38 C 516.97 281.98 517.04 288.59 517.05 295.20 C 521.23 295.31 525.41 295.38 529.59 295.40 C 529.59 299.56 529.65 303.73 529.78 307.89 C 535.91 307.85 542.04 307.95 548.17 307.99 C 548.43 318.37 548.43 328.76 548.17 339.13 C 533.56 339.52 518.95 339.13 504.34 339.30 C 504.43 370.47 504.45 401.64 504.33 432.81 C 533.52 433.11 562.72 432.94 591.91 432.89 C 592.28 418.35 591.73 403.81 592.14 389.27 C 602.46 389.30 612.78 389.28 623.10 389.27 C 623.24 393.42 623.33 397.56 623.39 401.71 C 629.57 401.57 635.76 401.68 641.94 401.80 C 641.93 407.94 642.05 414.08 642.06 420.22 C 646.23 420.33 650.40 420.40 654.58 420.41 C 654.59 424.58 654.65 428.75 654.78 432.92 C 661.27 432.91 667.76 432.99 674.25 433.03 C 674.40 439.22 674.51 445.42 674.33 451.61 C 678.52 451.65 682.72 451.73 686.93 451.84 C 686.85 462.47 687.43 473.15 686.76 483.76 C 682.92 485.10 678.75 484.51 674.76 484.72 C 674.66 488.71 674.59 492.71 674.59 496.71 C 667.83 496.59 661.07 496.61 654.33 496.98 C 654.49 503.06 654.39 509.15 654.26 515.24 C 650.24 515.34 646.22 515.39 642.21 515.39 C 642.07 519.57 641.95 523.76 641.85 527.94 C 635.65 527.92 629.46 528.07 623.26 528.13 C 623.44 534.32 623.31 540.52 623.11 546.72 C 612.79 546.69 602.46 546.69 592.14 546.72 C 591.74 530.09 592.26 513.46 591.93 496.84 C 567.62 496.43 543.31 496.84 519.00 496.64 C 514.11 496.57 509.22 496.72 504.35 496.99 C 504.44 528.21 504.42 559.43 504.36 590.65 C 518.96 590.71 533.57 590.38 548.17 590.79 C 548.41 601.10 548.50 611.43 548.10 621.74 C 541.98 621.61 535.86 621.72 529.75 621.85 C 529.59 628.09 529.49 634.34 529.67 640.59 C 525.48 640.60 521.30 640.67 517.12 640.79 C 517.03 644.83 516.95 648.88 516.88 652.92 C 512.84 653.01 508.81 653.09 504.78 653.16 C 504.65 657.33 504.58 661.50 504.59 665.68 C 498.33 665.52 492.07 665.62 485.82 665.78 C 485.67 672.41 485.61 679.04 485.70 685.67 C 474.90 685.62 464.10 685.62 453.30 685.67 C 453.39 679.05 453.33 672.42 453.18 665.81 C 449.11 665.69 445.04 665.62 440.97 665.60 C 440.78 661.45 440.67 657.30 440.62 653.16 C 434.45 653.13 428.28 653.00 422.12 652.97 C 422.04 648.91 421.96 644.85 421.88 640.79 C 417.70 640.67 413.51 640.61 409.33 640.59 C 409.50 634.34 409.40 628.09 409.25 621.85 C 403.13 621.72 397.01 621.61 390.90 621.74 C 390.49 611.43 390.60 601.10 390.83 590.79 C 407.44 590.38 424.06 590.70 440.67 590.66 C 440.71 559.41 440.63 528.16 440.72 496.91 C 417.48 496.37 394.24 496.83 371.00 496.69 C 363.02 496.68 355.04 496.55 347.07 496.83 C 346.73 513.46 347.26 530.09 346.86 546.71 C 336.54 546.69 326.21 546.69 315.89 546.72 C 315.68 540.52 315.55 534.32 315.74 528.13 C 309.53 528.07 303.33 527.93 297.13 527.94 C 297.05 523.88 296.96 519.82 296.88 515.77 C 292.35 515.63 287.82 515.57 283.30 515.61 C 283.41 509.34 283.30 503.08 283.18 496.82 C 276.93 496.69 270.67 496.59 264.42 496.71 C 264.41 492.73 264.34 488.76 264.24 484.79 C 260.16 484.58 256.09 484.41 252.01 484.19 C 251.97 473.41 251.93 462.62 252.07 451.84 C 256.27 451.73 260.47 451.65 264.67 451.61 C 264.49 445.42 264.60 439.22 264.75 433.03 C 270.88 433.01 277.02 432.89 283.15 432.93 C 283.26 428.74 283.33 424.56 283.38 420.38 C 287.90 420.42 292.42 420.35 296.94 420.23 C 296.95 414.08 297.07 407.95 297.06 401.81 C 303.24 401.68 309.43 401.56 315.62 401.71 C 315.67 397.56 315.76 393.42 315.91 389.28 C 326.22 389.29 336.54 389.30 346.86 389.27 C 347.26 403.81 346.72 418.35 347.09 432.90 C 378.30 432.96 409.51 433.08 440.72 432.83 C 440.65 401.65 440.68 370.47 440.70 339.29 C 424.08 339.14 407.45 339.51 390.83 339.13 C 390.56 328.76 390.56 318.37 390.83 307.99 C 396.96 307.95 403.09 307.85 409.22 307.89 C 409.34 303.73 409.41 299.57 409.41 295.40 C 413.59 295.38 417.77 295.31 421.95 295.20 C 421.97 288.70 422.05 282.21 422.05 275.72 C 428.24 275.56 434.43 275.45 440.62 275.66 C 440.66 271.41 440.73 267.16 440.85 262.92 C 444.94 262.82 449.04 262.75 453.14 262.71 C 453.30 256.57 453.43 250.42 453.27 244.28 Z" />
</g>
<g id="#95a5a6ff">
<path fill="#95a5a6" opacity="1.00" d=" M 378.34 11.37 C 439.11 11.42 499.89 11.42 560.66 11.37 C 560.60 17.63 560.74 23.89 560.84 30.15 C 577.40 30.60 593.97 30.17 610.54 30.32 C 610.67 34.45 610.82 38.58 610.98 42.71 C 625.39 42.84 639.81 42.41 654.23 42.87 C 654.36 49.12 654.49 55.37 654.38 61.62 C 665.19 61.73 676.00 61.36 686.81 61.80 C 686.93 65.84 687.06 69.89 687.19 73.93 C 697.51 74.23 707.83 73.85 718.16 74.11 C 718.26 80.30 718.40 86.48 718.33 92.67 C 724.49 92.61 730.66 92.76 736.82 92.87 C 736.96 97.47 737.09 102.06 737.24 106.66 C 747.68 106.74 758.14 106.26 768.57 106.98 C 768.44 113.02 768.54 119.06 768.69 125.10 C 772.63 125.23 776.59 125.34 780.54 125.44 C 780.67 129.52 780.81 133.61 780.96 137.69 C 787.05 137.64 793.14 137.76 799.23 137.88 C 799.36 144.10 799.49 150.31 799.37 156.52 C 803.52 156.62 807.67 156.73 811.82 156.85 C 811.93 160.88 812.06 164.91 812.18 168.95 C 818.34 168.99 824.51 169.16 830.68 169.20 C 830.58 175.34 830.74 181.47 830.88 187.61 C 834.97 187.72 839.06 187.83 843.15 187.96 C 843.53 198.29 843.21 208.63 843.31 218.97 C 850.03 219.13 856.75 219.35 863.48 219.28 C 863.53 223.26 863.61 227.24 863.74 231.21 C 867.71 231.33 871.68 231.43 875.66 231.50 C 875.81 241.91 875.42 252.33 875.89 262.73 C 882.14 262.66 888.39 262.84 894.64 263.05 C 894.70 273.75 894.37 284.45 894.78 295.14 C 898.79 295.26 902.81 295.36 906.84 295.45 C 907.24 305.72 906.81 315.99 907.09 326.26 C 913.28 326.42 919.46 326.55 925.66 326.40 C 925.87 347.29 925.39 368.18 925.85 389.06 C 929.92 389.19 934.01 389.30 938.10 389.41 C 938.63 417.27 938.16 445.14 938.32 473.00 C 938.20 507.95 938.55 542.90 938.15 577.85 C 934.05 577.97 929.95 578.09 925.85 578.21 C 925.40 592.69 925.85 607.18 925.68 621.67 C 919.48 621.61 913.28 621.76 907.09 621.88 C 906.72 636.43 907.36 650.99 906.84 665.55 C 902.81 665.63 898.79 665.73 894.78 665.86 C 894.37 676.54 894.70 687.23 894.64 697.92 C 888.39 698.13 882.14 698.31 875.89 698.25 C 875.43 708.66 875.81 719.08 875.66 729.49 C 871.67 729.56 867.67 729.65 863.69 729.79 C 863.54 735.83 863.44 741.89 863.57 747.94 C 856.82 748.17 850.07 748.38 843.32 748.28 C 843.21 758.56 843.52 768.84 843.15 779.12 C 839.11 779.25 835.07 779.36 831.04 779.46 C 830.84 783.54 830.67 787.62 830.52 791.71 C 824.38 791.69 818.23 791.85 812.10 791.98 C 812.09 798.17 811.91 804.36 811.85 810.56 C 807.83 810.65 803.83 810.75 799.83 810.87 C 799.70 814.91 799.60 818.95 799.53 822.99 C 793.31 823.20 787.10 823.37 780.89 823.30 C 780.74 829.42 780.58 835.55 780.68 841.68 C 776.59 841.86 772.50 842.03 768.42 842.21 C 768.32 846.20 768.20 850.19 768.08 854.19 C 757.77 854.59 747.46 854.28 737.16 854.34 C 737.10 860.96 736.89 867.58 736.91 874.20 C 730.76 874.33 724.60 874.47 718.45 874.36 C 718.33 878.53 718.21 882.70 718.09 886.88 C 707.75 887.12 697.42 886.75 687.10 887.07 C 687.10 893.27 686.91 899.47 686.85 905.68 C 676.18 905.78 665.51 905.43 654.85 905.84 C 654.71 909.89 654.60 913.94 654.52 918.00 C 639.99 918.72 625.44 918.09 610.90 918.30 C 610.74 924.47 610.58 930.65 610.68 936.83 C 594.07 937.26 577.45 936.67 560.84 937.06 C 560.78 941.04 560.69 945.02 560.58 949.00 L 378.43 949.00 C 378.30 945.02 378.21 941.04 378.16 937.07 C 361.55 936.68 344.93 937.26 328.32 936.83 C 328.42 930.65 328.26 924.47 328.10 918.29 C 313.21 918.11 298.31 918.65 283.42 918.07 C 283.32 913.99 283.21 909.91 283.09 905.83 C 272.78 905.45 262.47 905.77 252.16 905.68 C 252.08 899.47 251.90 893.27 251.90 887.07 C 241.57 886.75 231.24 887.12 220.92 886.89 C 220.78 882.71 220.66 878.53 220.55 874.36 C 214.39 874.47 208.24 874.33 202.08 874.20 C 202.11 867.58 201.89 860.96 201.84 854.34 C 191.53 854.29 181.22 854.59 170.92 854.19 C 170.79 850.19 170.68 846.20 170.58 842.20 C 166.49 842.03 162.41 841.86 158.32 841.68 C 158.42 835.55 158.26 829.42 158.11 823.30 C 151.90 823.37 145.68 823.20 139.47 822.99 C 139.39 818.94 139.30 814.90 139.17 810.87 C 135.17 810.75 131.16 810.65 127.15 810.56 C 127.09 804.36 126.90 798.17 126.90 791.98 C 120.76 791.85 114.62 791.69 108.48 791.71 C 108.32 787.63 108.15 783.55 107.96 779.48 C 103.43 779.37 98.89 779.22 94.36 779.04 C 94.30 768.81 94.65 758.59 94.18 748.38 C 90.15 748.24 86.12 748.10 82.09 747.95 C 82.06 741.88 81.92 735.81 81.90 729.74 C 75.72 729.59 69.53 729.45 63.34 729.60 C 63.18 719.18 63.57 708.75 63.11 698.34 C 59.03 698.22 54.94 698.10 50.85 697.96 C 50.43 687.11 50.83 676.25 50.66 665.39 C 44.47 665.52 38.28 665.39 32.09 665.24 C 31.71 650.81 32.24 636.38 31.92 621.95 C 27.74 621.81 23.55 621.68 19.36 621.56 C 19.32 611.30 19.61 601.04 19.22 590.78 C 13.10 590.65 6.99 590.54 0.87 590.61 C 0.23 576.74 0.78 562.84 0.60 548.96 C 0.60 519.32 0.61 489.68 0.60 460.04 C 0.81 436.46 0.19 412.87 0.89 389.30 C 7.00 389.36 13.11 389.25 19.22 389.13 C 19.67 368.42 19.28 347.71 19.36 327.00 C 23.52 326.81 27.69 326.66 31.85 326.52 C 32.21 316.27 31.79 306.00 32.09 295.75 C 38.28 295.60 44.47 295.47 50.66 295.60 C 50.84 284.73 50.44 273.86 50.85 263.00 C 54.94 262.86 59.03 262.75 63.12 262.64 C 63.57 252.23 63.18 241.81 63.34 231.39 C 69.49 231.53 75.64 231.40 81.79 231.26 C 81.94 227.27 82.08 223.29 82.22 219.31 C 86.22 219.21 90.22 219.09 94.22 218.96 C 94.63 208.66 94.31 198.36 94.36 188.07 C 98.95 187.87 103.53 187.72 108.12 187.59 C 108.26 181.46 108.42 175.33 108.32 169.20 C 114.49 169.16 120.65 169.00 126.82 168.95 C 126.94 164.91 127.06 160.88 127.18 156.86 C 131.33 156.73 135.48 156.62 139.63 156.52 C 139.51 150.31 139.64 144.09 139.77 137.88 C 145.86 137.76 151.94 137.64 158.03 137.69 C 158.19 133.61 158.33 129.53 158.46 125.44 C 162.41 125.34 166.36 125.23 170.31 125.10 C 170.45 119.06 170.56 113.02 170.43 106.98 C 180.86 106.26 191.31 106.74 201.76 106.66 C 201.90 102.06 202.04 97.46 202.18 92.87 C 208.34 92.76 214.50 92.61 220.67 92.67 C 220.60 86.49 220.74 80.30 220.85 74.11 C 231.17 73.86 241.49 74.24 251.81 73.92 C 251.93 69.88 252.06 65.84 252.19 61.79 C 262.47 61.38 272.75 61.71 283.03 61.64 C 283.26 55.40 283.43 49.17 283.32 42.93 C 298.22 42.34 313.12 42.88 328.02 42.71 C 328.18 38.58 328.32 34.45 328.46 30.31 C 345.03 30.17 361.59 30.60 378.16 30.15 C 378.26 23.89 378.40 17.63 378.34 11.37 M 453.27 244.28 C 453.43 250.42 453.30 256.57 453.14 262.71 C 449.04 262.75 444.94 262.82 440.85 262.92 C 440.73 267.16 440.66 271.41 440.62 275.66 C 434.43 275.45 428.24 275.56 422.05 275.72 C 422.05 282.21 421.97 288.70 421.95 295.20 C 417.77 295.31 413.59 295.38 409.41 295.40 C 409.41 299.57 409.34 303.73 409.22 307.89 C 403.09 307.85 396.96 307.95 390.83 307.99 C 390.56 318.37 390.56 328.76 390.83 339.13 C 407.45 339.51 424.08 339.14 440.70 339.29 C 440.68 370.47 440.65 401.65 440.72 432.83 C 409.51 433.08 378.30 432.96 347.09 432.90 C 346.72 418.35 347.26 403.81 346.86 389.27 C 336.54 389.30 326.22 389.29 315.91 389.28 C 315.76 393.42 315.67 397.56 315.62 401.71 C 309.43 401.56 303.24 401.68 297.06 401.81 C 297.07 407.95 296.95 414.08 296.94 420.23 C 292.42 420.35 287.90 420.42 283.38 420.38 C 283.33 424.56 283.26 428.74 283.15 432.93 C 277.02 432.89 270.88 433.01 264.75 433.03 C 264.60 439.22 264.49 445.42 264.67 451.61 C 260.47 451.65 256.27 451.73 252.07 451.84 C 251.93 462.62 251.97 473.41 252.01 484.19 C 256.09 484.41 260.16 484.58 264.24 484.79 C 264.34 488.76 264.41 492.73 264.42 496.71 C 270.67 496.59 276.93 496.69 283.18 496.82 C 283.30 503.08 283.41 509.34 283.30 515.61 C 287.82 515.57 292.35 515.63 296.88 515.77 C 296.96 519.82 297.05 523.88 297.13 527.94 C 303.33 527.93 309.53 528.07 315.74 528.13 C 315.55 534.32 315.68 540.52 315.89 546.72 C 326.21 546.69 336.54 546.69 346.86 546.71 C 347.26 530.09 346.73 513.46 347.07 496.83 C 355.04 496.55 363.02 496.68 371.00 496.69 C 394.24 496.83 417.48 496.37 440.72 496.91 C 440.63 528.16 440.71 559.41 440.67 590.66 C 424.06 590.70 407.44 590.38 390.83 590.79 C 390.60 601.10 390.49 611.43 390.90 621.74 C 397.01 621.61 403.13 621.72 409.25 621.85 C 409.40 628.09 409.50 634.34 409.33 640.59 C 413.51 640.61 417.70 640.67 421.88 640.79 C 421.96 644.85 422.04 648.91 422.12 652.97 C 428.28 653.00 434.45 653.13 440.62 653.16 C 440.67 657.30 440.78 661.45 440.97 665.60 C 445.04 665.62 449.11 665.69 453.18 665.81 C 453.33 672.42 453.39 679.05 453.30 685.67 C 464.10 685.62 474.90 685.62 485.70 685.67 C 485.61 679.04 485.67 672.41 485.82 665.78 C 492.07 665.62 498.33 665.52 504.59 665.68 C 504.58 661.50 504.65 657.33 504.78 653.16 C 508.81 653.09 512.84 653.01 516.88 652.92 C 516.95 648.88 517.03 644.83 517.12 640.79 C 521.30 640.67 525.48 640.60 529.67 640.59 C 529.49 634.34 529.59 628.09 529.75 621.85 C 535.86 621.72 541.98 621.61 548.10 621.74 C 548.50 611.43 548.41 601.10 548.17 590.79 C 533.57 590.38 518.96 590.71 504.36 590.65 C 504.42 559.43 504.44 528.21 504.35 496.99 C 509.22 496.72 514.11 496.57 519.00 496.64 C 543.31 496.84 567.62 496.43 591.93 496.84 C 592.26 513.46 591.74 530.09 592.14 546.72 C 602.46 546.69 612.79 546.69 623.11 546.72 C 623.31 540.52 623.44 534.32 623.26 528.13 C 629.46 528.07 635.65 527.92 641.85 527.94 C 641.95 523.76 642.07 519.57 642.21 515.39 C 646.22 515.39 650.24 515.34 654.26 515.24 C 654.39 509.15 654.49 503.06 654.33 496.98 C 661.07 496.61 667.83 496.59 674.59 496.71 C 674.59 492.71 674.66 488.71 674.76 484.72 C 678.75 484.51 682.92 485.10 686.76 483.76 C 687.43 473.15 686.85 462.47 686.93 451.84 C 682.72 451.73 678.52 451.65 674.33 451.61 C 674.51 445.42 674.40 439.22 674.25 433.03 C 667.76 432.99 661.27 432.91 654.78 432.92 C 654.65 428.75 654.59 424.58 654.58 420.41 C 650.40 420.40 646.23 420.33 642.06 420.22 C 642.05 414.08 641.93 407.94 641.94 401.80 C 635.76 401.68 629.57 401.57 623.39 401.71 C 623.33 397.56 623.24 393.42 623.10 389.27 C 612.78 389.28 602.46 389.30 592.14 389.27 C 591.73 403.81 592.28 418.35 591.91 432.89 C 562.72 432.94 533.52 433.11 504.33 432.81 C 504.45 401.64 504.43 370.47 504.34 339.30 C 518.95 339.13 533.56 339.52 548.17 339.13 C 548.43 328.76 548.43 318.37 548.17 307.99 C 542.04 307.95 535.91 307.85 529.78 307.89 C 529.65 303.73 529.59 299.56 529.59 295.40 C 525.41 295.38 521.23 295.31 517.05 295.20 C 517.04 288.59 516.97 281.98 516.86 275.38 C 512.82 275.36 508.79 275.30 504.76 275.21 C 504.65 271.15 504.60 267.10 504.60 263.05 C 498.36 262.76 492.11 262.65 485.86 262.79 C 485.70 256.62 485.56 250.45 485.72 244.28 C 474.91 244.20 464.09 244.20 453.27 244.28 Z" />
</g>
</svg>
