<?xml version="1.0" encoding="UTF-8" ?>
<!DOCTYPE svg PUBLIC "-//W3C//DTD SVG 1.1//EN" "http://www.w3.org/Graphics/SVG/1.1/DTD/svg11.dtd">
<svg width="60pt" height="60pt" viewBox="0 0 60 60" version="1.1" xmlns="http://www.w3.org/2000/svg">
<g id="#ffffffff">
<path fill="#ffffff" opacity="1.00" d=" M 18.76 26.57 C 19.17 22.91 21.19 19.04 25.09 18.21 C 28.85 16.99 32.55 19.40 34.43 22.55 C 36.04 22.08 37.91 21.52 39.37 22.70 C 41.26 23.83 40.95 26.16 40.85 28.02 C 42.43 29.13 44.29 30.19 44.78 32.23 C 46.06 35.88 42.97 40.12 39.11 40.04 C 33.39 40.10 27.66 40.10 21.93 40.04 C 17.52 40.09 13.94 35.30 15.33 31.08 C 15.75 29.11 17.42 27.91 18.76 26.57 Z" />
</g>
<g id="#0faff1ff">
<path fill="#0faff1" opacity="1.00" d=" M 28.14 0.00 L 32.52 0.00 C 46.93 1.17 59.24 13.62 60.00 28.10 L 60.00 32.52 C 58.84 46.90 46.45 59.18 32.01 60.00 L 27.78 60.00 C 13.30 59.03 0.87 46.58 0.00 32.07 L 0.00 27.78 C 0.97 13.23 13.56 0.74 28.14 0.00 M 18.76 26.57 C 17.42 27.91 15.75 29.11 15.33 31.08 C 13.94 35.30 17.52 40.09 21.93 40.04 C 27.66 40.10 33.39 40.10 39.11 40.04 C 42.97 40.12 46.06 35.88 44.78 32.23 C 44.29 30.19 42.43 29.13 40.85 28.02 C 40.95 26.16 41.26 23.83 39.37 22.70 C 37.91 21.52 36.04 22.08 34.43 22.55 C 32.55 19.40 28.85 16.99 25.09 18.21 C 21.19 19.04 19.17 22.91 18.76 26.57 Z" />
</g>
</svg>
