<?xml version="1.0" encoding="UTF-8" ?>
<!DOCTYPE svg PUBLIC "-//W3C//DTD SVG 1.1//EN" "http://www.w3.org/Graphics/SVG/1.1/DTD/svg11.dtd">
<svg width="60pt" height="60pt" viewBox="0 0 60 60" version="1.1" xmlns="http://www.w3.org/2000/svg">
<g id="#ffffffff">
<path fill="#ffffff" opacity="1.00" d=" M 16.64 23.42 C 19.95 17.44 28.69 16.48 34.19 19.86 C 36.81 21.42 38.88 24.67 37.80 27.76 C 36.29 32.15 31.26 34.18 26.91 33.97 C 23.64 33.72 20.90 35.90 17.71 36.22 C 18.49 34.97 19.33 33.76 20.17 32.55 C 17.47 30.45 14.74 26.96 16.64 23.42 Z" />
<path fill="#ffffff" opacity="1.00" d=" M 39.89 23.39 C 41.79 25.16 44.07 27.11 44.11 29.94 C 44.16 32.78 41.90 34.77 39.97 36.52 C 40.79 37.77 41.59 39.03 42.35 40.31 C 39.99 39.76 37.76 38.77 35.44 38.10 C 32.08 38.10 28.74 37.71 25.65 36.28 C 30.16 35.82 35.25 34.99 38.14 31.09 C 39.99 28.97 39.95 26.04 39.89 23.39 Z" />
</g>
<g id="#f1540fff">
<path fill="#f1540f" opacity="1.00" d=" M 28.20 0.00 L 32.38 0.00 C 46.87 1.08 59.29 13.62 60.00 28.18 L 60.00 32.36 C 58.94 46.84 46.43 59.25 31.89 60.00 L 27.88 60.00 C 13.33 59.09 0.81 46.56 0.00 31.99 L 0.00 27.84 C 0.93 13.25 13.58 0.71 28.20 0.00 M 16.64 23.42 C 14.74 26.96 17.47 30.45 20.17 32.55 C 19.33 33.76 18.49 34.97 17.71 36.22 C 20.90 35.90 23.64 33.72 26.91 33.97 C 31.26 34.18 36.29 32.15 37.80 27.76 C 38.88 24.67 36.81 21.42 34.19 19.86 C 28.69 16.48 19.95 17.44 16.64 23.42 M 39.89 23.39 C 39.95 26.04 39.99 28.97 38.14 31.09 C 35.25 34.99 30.16 35.82 25.65 36.28 C 28.74 37.71 32.08 38.10 35.44 38.10 C 37.76 38.77 39.99 39.76 42.35 40.31 C 41.59 39.03 40.79 37.77 39.97 36.52 C 41.90 34.77 44.16 32.78 44.11 29.94 C 44.07 27.11 41.79 25.16 39.89 23.39 Z" />
</g>
</svg>
